<svg width="59" height="60" viewBox="0 0 59 60" fill="none" xmlns="http://www.w3.org/2000/svg">
<g id="ban 1" clip-path="url(#clip0_1_84)">
<g id="Group">
<path id="Vector" d="M2.97607 30.0739V29.9594C3.0375 15.2893 14.8803 3.43297 29.5 3.43297C36.3029 3.43297 42.4834 5.99818 47.1516 10.233L9.74591 47.803C5.53044 43.1148 2.97607 36.907 2.97607 30.0739ZM29.6137 56.7153H29.5C22.6971 56.7153 16.5166 54.1501 11.8483 49.9153L49.2541 12.3452C53.4695 17.0334 56.0239 23.2413 56.0239 30.0744C56.0239 44.7591 44.2189 56.6537 29.6137 56.7153ZM29.5 0.418555C13.1902 0.418555 -0.0262695 13.6938 -0.0262695 30.0741C-0.0262695 46.4544 13.1902 59.7297 29.5 59.7297C45.8097 59.7297 59.0262 46.4544 59.0262 30.0741C59.0262 13.6938 45.8097 0.418555 29.5 0.418555Z" fill="#002956" stroke="#002956" stroke-width="0.2"/>
</g>
</g>
<defs>
<clipPath id="clip0_1_84">
<rect width="59" height="60" fill="white"/>
</clipPath>
</defs>
</svg>
