<svg width="122" height="60" viewBox="0 0 122 60" fill="none" xmlns="http://www.w3.org/2000/svg">
<g id="choiche 1" clip-path="url(#clip0_1_113)">
<g id="Group">
<path id="Vector" d="M90.3128 0.494775H30.6597C14.1078 0.494775 0.639062 13.8541 0.639062 30.2769C0.639062 46.6996 14.1078 60.059 30.6597 60.059H90.3128C106.866 60.059 120.336 46.6997 120.336 30.2769C120.336 13.8541 106.867 0.494775 90.3128 0.494775ZM90.3128 57.3643H30.6597C15.6013 57.3643 3.35111 45.2111 3.35111 30.2748C3.35111 15.3384 15.6013 3.18526 30.6597 3.18526H90.3128C105.373 3.18526 117.624 15.3385 117.624 30.2748C117.624 45.2111 105.373 57.3643 90.3128 57.3643Z" fill="#002956" stroke="#002956" stroke-width="0.3"/>
<path id="Vector_2" d="M32.7144 8.4396C20.5774 8.4396 10.7008 18.2348 10.7008 30.277C10.7008 42.3191 20.5765 52.1143 32.7144 52.1143C44.8529 52.1143 54.7279 42.3191 54.7279 30.277C54.727 18.2348 44.8514 8.4396 32.7144 8.4396ZM32.7144 49.4238C22.0708 49.4238 13.4137 40.8346 13.4137 30.2782C13.4137 19.7225 22.071 11.1326 32.7144 11.1326C43.3588 11.1326 52.0167 19.7219 52.0167 30.2782C52.0159 40.8339 43.3585 49.4238 32.7144 49.4238Z" fill="#002956" stroke="#002956" stroke-width="0.3"/>
<path id="Vector_3" d="M88.2583 8.4396C76.1198 8.4396 66.2426 18.2348 66.2426 30.277C66.2426 42.3191 76.1191 52.1143 88.2583 52.1143C100.396 52.1143 110.274 42.3183 110.274 30.277C110.274 18.2356 100.397 8.4396 88.2583 8.4396ZM88.2583 49.4238C77.6123 49.4238 68.9551 40.8345 68.9551 30.2782C68.9551 19.7226 77.6124 11.1326 88.2583 11.1326C98.9035 11.1326 107.561 19.7228 107.561 30.2782C107.561 40.8337 98.9033 49.4238 88.2583 49.4238Z" fill="#002956" stroke="#002956" stroke-width="0.3"/>
<path id="Vector_4" d="M39.7415 21.6165L32.7153 28.586L25.69 21.6173L23.9847 23.3088L31.0101 30.2775L23.9839 37.2471L25.6891 38.9386L32.7153 31.969L39.7406 38.9386L41.4458 37.2471L34.4205 30.2775L41.4467 23.3079L39.7415 21.6165Z" fill="#002956"/>
<path id="Vector_5" d="M84.4615 36.0555L79.3282 31.3557L77.6919 33.1131L84.6289 39.4651L98.9059 23.5901L97.1064 21.9979L84.4615 36.0555Z" fill="#002956"/>
</g>
</g>
<defs>
<clipPath id="clip0_1_113">
<rect width="122" height="60" fill="white"/>
</clipPath>
</defs>
</svg>
