<svg width="86" height="60" viewBox="0 0 86 60" fill="none" xmlns="http://www.w3.org/2000/svg">
<g id="fr 1" clip-path="url(#clip0_1_96)">
<g id="Group">
<path id="Vector" d="M30.4985 12.914C30.4985 19.9227 36.1975 25.6248 43.2039 25.6248C50.2097 25.6248 55.9092 19.9227 55.9092 12.914C55.9092 5.9054 50.2102 0.203247 43.2039 0.203247C36.198 0.203247 30.4985 5.90539 30.4985 12.914ZM32.8728 12.9137C32.8728 7.21436 37.5073 2.57799 43.2039 2.57799C48.8998 2.57799 53.5349 7.21437 53.5349 12.9137C53.5349 18.6131 48.9004 23.2494 43.2039 23.2494C37.508 23.2494 32.8728 18.613 32.8728 12.9137Z" fill="#002956" stroke="#002956" stroke-width="0.5"/>
<path id="Vector_2" d="M59.2075 13.6481C59.2075 18.9442 63.5134 23.2523 68.8076 23.2523C74.1011 23.2523 78.4077 18.9444 78.4077 13.6481C78.4077 8.35256 74.1018 4.04395 68.8076 4.04395C63.5141 4.04395 59.2075 8.35185 59.2075 13.6481ZM61.5816 13.6481C61.5816 9.66236 64.8232 6.41886 68.8076 6.41886C72.7913 6.41886 76.0336 9.6617 76.0336 13.6481C76.0336 17.6339 72.792 20.8774 68.8076 20.8774C64.8238 20.8774 61.5816 17.6345 61.5816 13.6481Z" fill="#002956" stroke="#002956" stroke-width="0.5"/>
<path id="Vector_3" d="M6.76735 48.0283L6.76711 48.0283C3.18217 47.3765 0.580566 44.2574 0.580566 40.6125V37.4952C0.580566 28.3319 8.0318 20.8772 17.1914 20.8772C22.7924 20.8772 27.9799 23.6751 31.0676 28.3603C31.4059 28.8735 31.2966 29.5612 30.815 29.9439C26.0211 33.7543 23.2729 39.4466 23.2729 45.5625V46.8599V46.8602H23.0229L6.76735 48.0283ZM6.76735 48.0283C6.83662 48.0408 6.90774 48.0477 6.97983 48.0477H22.041L6.76735 48.0283ZM7.09126 45.6726C4.68843 45.1864 2.95491 43.0753 2.95491 40.6125V37.4952C2.95491 29.6417 9.34183 23.2522 17.1916 23.2522C21.6397 23.2522 25.783 25.3102 28.4733 28.8074C23.6457 33.051 20.8994 39.0953 20.8994 45.5623V45.6726H7.09126Z" fill="#002956" stroke="#002956" stroke-width="0.5"/>
<path id="Vector_4" d="M79.0202 48.0477H79.6596L79.5651 47.9605C82.9768 47.1815 85.4186 44.1442 85.4186 40.6129V37.4957C85.4186 28.3323 77.9673 20.8777 68.8078 20.8777C63.3153 20.8777 58.1845 23.5927 55.0818 28.1393L55.0817 28.1394C54.7276 28.659 54.839 29.3663 55.3388 29.7501C55.6193 29.9657 55.863 30.162 56.085 30.3505L56.0851 30.3505C60.564 34.1503 63.1328 39.6949 63.1328 45.5624V46.8602C63.1328 47.5158 63.6644 48.0477 64.3199 48.0477H79.0202ZM65.5083 45.6726L65.5085 45.562V45.5615C65.5085 39.0267 62.6605 32.8494 57.6931 28.599C60.3878 25.2317 64.4667 23.2519 68.8087 23.2519C76.6585 23.2519 83.0454 29.6415 83.0454 37.495V40.6123C83.0454 43.0756 81.3113 45.187 78.9079 45.6726H65.5083Z" fill="#002956" stroke="#002956" stroke-width="0.5"/>
<path id="Vector_5" d="M29.3384 28.0852C23.9755 32.3475 20.8992 38.7189 20.8992 45.5627V49.8304C20.8992 54.6085 24.3103 58.697 29.0095 59.5517C29.0784 59.5643 29.1496 59.5712 29.2216 59.5712H56.6073L56.6068 59.5717H57.1842C57.2563 59.5717 57.3275 59.5648 57.3967 59.5523L57.3969 59.5522C62.0964 58.6983 65.5073 54.609 65.5073 49.8309V45.5632C65.5073 38.9973 62.6322 32.7924 57.6211 28.5403C57.3692 28.3263 57.0956 28.1062 56.7858 27.8678L56.6334 28.066L56.7858 27.8678C52.8592 24.8468 48.1616 23.2496 43.2029 23.2496C38.1123 23.2496 33.3171 24.9221 29.3384 28.0852ZM29.3384 28.0852L29.4939 28.2809L29.3384 28.0852ZM29.3327 57.1961C25.8152 56.5071 23.2735 53.4257 23.2735 49.8309V45.5632C23.2735 39.4473 26.0218 33.755 30.8156 29.9446L30.8156 29.9446C34.3704 27.1177 38.6528 25.6247 43.2029 25.6247C47.6353 25.6247 51.83 27.051 55.3384 29.7501L55.3385 29.7501C55.619 29.9657 55.8628 30.162 56.0847 30.3505L56.0848 30.3506C60.5638 34.1503 63.1326 39.695 63.1326 45.5625V49.8302C63.1326 53.4257 60.5908 56.5072 57.0733 57.1961H29.3327Z" fill="#002956" stroke="#002956" stroke-width="0.5"/>
<path id="Vector_6" d="M17.1926 23.2523C11.8984 23.2523 7.59253 18.9442 7.59253 13.6481C7.59253 8.35186 11.8986 4.04395 17.1926 4.04395C22.4868 4.04395 26.7926 8.35255 26.7927 13.6481L17.1926 23.2523ZM17.1926 23.2523C22.4866 23.2523 26.7933 18.9444 26.7927 13.6481L17.1926 23.2523ZM9.96662 13.6481C9.96662 9.66236 13.2082 6.41886 17.1926 6.41886C21.177 6.41886 24.4186 9.66169 24.4186 13.6481C24.4186 17.6339 21.177 20.8774 17.1926 20.8774C13.2082 20.8774 9.96662 17.6346 9.96662 13.6481Z" fill="#002956" stroke="#002956" stroke-width="0.5"/>
</g>
</g>
<defs>
<clipPath id="clip0_1_96">
<rect width="86" height="60" fill="white"/>
</clipPath>
</defs>
</svg>
