<svg width="84" height="60" viewBox="0 0 84 60" fill="none" xmlns="http://www.w3.org/2000/svg">
<g id="gallery 1" clip-path="url(#clip0_1_56)">
<g id="Group">
<path id="Vector" d="M81.2294 19.9819L63.6151 2.27813C61.0037 -0.35986 56.7224 -0.373266 54.0769 2.25252L49.6796 6.68069L33.2146 6.68011C30.4396 6.68011 28.0645 8.36559 27.0192 10.7627C24.6989 10.0919 22.1516 10.6917 20.379 12.4704L2.77803 30.2024C1.49309 31.4662 0.791642 33.1645 0.787056 34.9751C0.778968 36.7973 1.48037 38.5172 2.76073 39.8153L20.3779 57.522C21.6923 58.8497 23.4309 59.5135 25.1595 59.5135C26.8765 59.5135 28.6017 58.8561 29.9122 57.5476L42.0538 45.323H52.0803L54.0759 47.3274C55.3521 48.6184 57.0507 49.3277 58.854 49.3277H58.8794C60.6768 49.3149 62.3598 48.6057 63.6136 47.3274L81.222 29.5953C82.4936 28.3264 83.1996 26.6326 83.2084 24.8156C83.2136 23.0015 82.5075 21.2812 81.2277 19.9831L81.2294 19.9819ZM33.2143 9.43469H58.1056C60.3144 9.43469 62.1263 11.2308 62.1263 13.4528V27.4189L55.9657 21.2214C54.2787 19.5137 51.5002 19.5073 49.7709 21.2214L45.652 25.3628L41.5378 21.2214C39.842 19.5137 37.0717 19.5137 35.343 21.2214L29.1945 27.4271V13.453C29.1939 11.231 31 9.43484 33.214 9.43484L33.2143 9.43469ZM29.1942 31.3208L37.2649 23.1748C37.916 22.5302 38.9647 22.5243 39.6026 23.1667L48.0454 31.6728C48.5897 32.2075 49.4453 32.2075 49.9849 31.6728C50.5159 31.1341 50.5159 30.2608 49.9849 29.7267L47.5912 27.3104L51.7014 23.1759C52.3473 22.5376 53.4011 22.5254 54.0303 23.1678L62.1265 31.3168V38.5511C62.1265 40.7672 60.3152 42.5692 58.1057 42.5692L33.2145 42.5686C31.0011 42.5686 29.1938 40.7667 29.1938 38.5505L29.1942 31.3208ZM27.9907 55.5916C26.4192 57.155 23.8678 57.148 22.3096 55.573L4.69983 37.8648C3.93372 37.091 3.51888 36.0676 3.51888 34.9871C3.52697 33.9055 3.94296 32.9025 4.69983 32.1542L22.3082 14.4058C23.4128 13.3003 25.0225 13.0001 26.4571 13.5034V38.5472C26.4571 42.2812 29.4834 45.3208 33.2135 45.3208H38.192L27.9907 55.5916ZM79.2982 27.6404L61.6721 45.3888C60.939 46.1487 59.9376 46.5658 58.8677 46.5716H58.8544C57.7844 46.5716 56.7739 46.1487 56.0106 45.3812L55.9511 45.3213H58.1044C61.8293 45.3213 64.8648 42.2819 64.8648 38.5477V13.4517C64.8648 9.71186 61.8293 6.67872 58.1044 6.67872H53.5488L56.0019 4.19728C57.5723 2.64094 60.1203 2.64734 61.6791 4.22288L79.2977 21.9296C80.0598 22.7028 80.4839 23.7204 80.4839 24.8072C80.4752 25.8894 80.0552 26.8855 79.2983 27.6402L79.2982 27.6404Z" fill="#002956"/>
<path id="Vector_2" d="M43.7601 20.1785C46.4137 20.1785 48.5762 18.0031 48.5762 15.3255C48.5762 12.6591 46.4137 10.4818 43.7601 10.4818C41.1053 10.4818 38.9392 12.659 38.9392 15.3255C38.9386 18.002 41.1047 20.1785 43.7601 20.1785ZM43.7601 13.2369C44.9029 13.2369 45.8366 14.1742 45.8366 15.3255C45.8366 16.481 44.9029 17.4248 43.7601 17.4248C42.6121 17.4248 41.6836 16.4805 41.6836 15.3255C41.683 14.1741 42.6121 13.2369 43.7601 13.2369Z" fill="#002956"/>
</g>
</g>
<defs>
<clipPath id="clip0_1_56">
<rect width="84" height="60" fill="white"/>
</clipPath>
</defs>
</svg>
