<svg width="49" height="60" viewBox="0 0 49 60" fill="none" xmlns="http://www.w3.org/2000/svg">
<g id="share 1" clip-path="url(#clip0_1_107)">
<g id="Group">
<path id="Vector" d="M39.3926 18.893C44.5121 18.893 48.7004 14.7371 48.7004 9.65723C48.7004 4.57737 44.5121 0.421509 39.3926 0.421509C34.2731 0.421509 30.0848 4.57737 30.0848 9.65723C30.0848 11.4273 30.628 13.0439 31.4807 14.5062L16.2002 24.2037C14.4938 22.5105 12.1667 21.433 9.60685 21.433C4.48736 21.433 0.299072 25.5888 0.299072 30.6687C0.299072 35.7485 4.48736 39.9044 9.60685 39.9044C12.1665 39.9044 14.4936 38.8269 16.2002 37.1336L31.0153 46.6003C30.3947 47.8318 30.0068 49.217 30.0068 50.6794C30.0068 55.7593 34.1951 59.9152 39.3146 59.9152C44.4341 59.9152 48.6224 55.7593 48.6224 50.6794C48.6224 45.5996 44.4341 41.4437 39.3146 41.4437C36.7549 41.4437 34.5056 42.4444 32.7992 44.0604L17.9841 34.6712C18.6047 33.4396 18.9147 32.1313 18.9147 30.6688C18.9147 29.2063 18.6047 27.8981 17.9841 26.6665L33.4973 16.7382C35.1259 18.1233 37.1429 18.8932 39.3922 18.8932L39.3926 18.893ZM39.3926 44.5994C42.8056 44.5994 45.598 47.3702 45.598 50.7568C45.598 54.1434 42.8056 56.9142 39.3926 56.9142C35.9796 56.9142 33.1872 54.1434 33.1872 50.7568C33.1872 47.3702 35.9796 44.5994 39.3926 44.5994ZM9.60726 36.8261C6.19422 36.8261 3.40185 34.0553 3.40185 30.6687C3.40185 27.2821 6.19422 24.5113 9.60726 24.5113C13.0203 24.5113 15.8127 27.2821 15.8127 30.6687C15.8127 34.0553 13.0203 36.8261 9.60726 36.8261ZM39.3926 3.49999C42.8056 3.49999 45.598 6.27075 45.598 9.65737C45.598 13.044 42.8056 15.8148 39.3926 15.8148C35.9796 15.8148 33.1872 13.044 33.1872 9.65737C33.1872 6.27075 35.9796 3.49999 39.3926 3.49999Z" fill="#002956"/>
</g>
</g>
<defs>
<clipPath id="clip0_1_107">
<rect width="49" height="60" fill="white"/>
</clipPath>
</defs>
</svg>
