<svg width="65" height="60" viewBox="0 0 65 60" fill="none" xmlns="http://www.w3.org/2000/svg">
<g id="sync 1" clip-path="url(#clip0_1_123)">
<g id="Group">
<path id="Vector" d="M46.8798 53.3386C47.1318 53.8047 47.1876 54.3513 47.0348 54.8579C46.8816 55.3649 46.5327 55.7909 46.0643 56.0417C39.9958 59.3101 32.9782 60.3884 26.2016 59.0943C19.4246 57.8004 13.3063 54.2133 8.88417 48.9418C4.46203 43.6703 2.00801 37.0383 1.93894 30.1719C1.87216 25.6769 2.84036 21.2268 4.76854 17.1615L3.41567 17.9394C2.79505 18.2958 2.03038 18.2958 1.40973 17.9389C0.789109 17.5825 0.407227 16.9235 0.407227 16.2103C0.407227 15.497 0.789565 14.838 1.41019 14.4816L9.52716 9.81822V9.81776C10.1478 9.46138 10.9125 9.46138 11.5331 9.81822C12.1537 10.1746 12.5361 10.8336 12.5361 11.5469V20.8742C12.5228 21.5784 12.1377 22.2238 11.5226 22.5724C10.9075 22.921 10.1529 22.921 9.53772 22.5724C8.92259 22.2237 8.5375 21.5783 8.52425 20.8742V18.6162C6.13603 23.525 5.3736 29.0606 6.34596 34.4277C7.31874 39.7948 9.97687 44.7168 13.9375 48.4856C17.8986 52.2547 22.9582 54.6761 28.3899 55.4024C33.8209 56.1284 39.3439 55.1221 44.1642 52.5273C44.6325 52.2769 45.1818 52.2214 45.6913 52.3734C46.2003 52.5254 46.6284 52.8727 46.8808 53.3388L46.8798 53.3386ZM64.3237 40.4575C64.0575 39.9992 63.6198 39.6647 63.1058 39.5277C62.5917 39.3902 62.0443 39.4621 61.5837 39.727L59.6574 40.8339C61.9085 35.2256 62.3915 29.068 61.0427 23.1803C59.6939 17.2921 56.5766 11.9514 52.1057 7.86753C47.6346 3.7844 42.0207 1.15133 36.0106 0.318458C30.0001 -0.514458 23.8775 0.492326 18.4555 3.20461C17.8152 3.52503 17.3954 4.16087 17.3538 4.87267C17.3126 5.58453 17.6556 6.26448 18.2543 6.65598C18.8534 7.04787 19.6167 7.09156 20.2566 6.77159C24.6576 4.54365 29.6111 3.62875 34.5217 4.1363C39.4327 4.6438 44.0916 6.55219 47.9392 9.63222C52.2003 13.0277 55.2836 17.6683 56.7541 22.9013C58.2245 28.1332 58.0072 33.6923 56.1339 38.7955L56.0346 36.7C55.9715 36.0105 55.554 35.4028 54.9311 35.0943C54.3086 34.7857 53.57 34.8203 52.9791 35.1853C52.3882 35.5508 52.0296 36.1944 52.0315 36.8867L52.4691 46.2145V46.215C52.5021 46.9105 52.8968 47.5385 53.511 47.8727C54.1247 48.2068 54.8693 48.1981 55.4752 47.8504L63.5927 43.187L63.5931 43.1865C64.0537 42.9212 64.3889 42.4847 64.5261 41.9731C64.6633 41.4615 64.5906 40.9167 64.324 40.4584L64.3237 40.4575Z" fill="#002956"/>
</g>
</g>
<defs>
<clipPath id="clip0_1_123">
<rect width="65" height="60" fill="white"/>
</clipPath>
</defs>
</svg>
