<svg width="30" height="30" viewBox="0 0 30 30" fill="none" xmlns="http://www.w3.org/2000/svg">
<g id="noun-create-1409624 1" clip-path="url(#clip0_1_154)">
<g id="Group">
<path id="Vector" fill-rule="evenodd" clip-rule="evenodd" d="M13.2578 13.8045H8.9022C8.18033 13.8045 7.59546 14.3896 7.59546 15.1112C7.59546 15.8328 8.18031 16.418 8.9022 16.418H13.2578C13.4981 16.418 13.6931 16.613 13.6931 16.8533V21.2089C13.6931 21.9308 14.2783 22.5156 14.9999 22.5156C15.7215 22.5156 16.3066 21.9308 16.3066 21.2089V16.8533C16.3066 16.613 16.5017 16.418 16.742 16.418H21.0976C21.8194 16.418 22.4043 15.8328 22.4043 15.1112C22.4043 14.3896 21.8195 13.8045 21.0976 13.8045H16.742C16.5017 13.8045 16.3066 13.6094 16.3066 13.3691V9.01353C16.3066 8.29166 15.7215 7.70679 14.9999 7.70679C14.2783 7.70679 13.6931 8.29164 13.6931 9.01353V13.3691C13.6931 13.6094 13.4981 13.8045 13.2578 13.8045Z" fill="#002956"/>
<path id="Vector_2" d="M15.0001 27.3066C21.7355 27.3066 27.1956 21.8464 27.1956 15.111C27.1956 8.37572 21.7354 2.91549 15.0001 2.91549C8.26473 2.91549 2.80449 8.37572 2.80449 15.111C2.80449 21.8464 8.26473 27.3066 15.0001 27.3066ZM15.0001 29.9198C6.82094 29.9198 0.191162 23.2898 0.191162 15.1109C0.191162 6.93194 6.8211 0.302002 15.0001 0.302002C23.179 0.302002 29.8089 6.93194 29.8089 15.1109C29.8089 23.2898 23.179 29.9198 15.0001 29.9198Z" fill="#002956"/>
</g>
</g>
<defs>
<clipPath id="clip0_1_154">
<rect width="30" height="30" fill="white"/>
</clipPath>
</defs>
</svg>
