<svg width="32" height="31" viewBox="0 0 32 31" fill="none" xmlns="http://www.w3.org/2000/svg">
<g id="download 1" clip-path="url(#clip0_1_134)">
<g id="Group">
<path id="Vector" d="M0.738525 27.0434C0.738525 28.0493 1.1405 29.0142 1.85589 29.7259C2.5717 30.4371 3.54218 30.8368 4.55391 30.8368H27.4462C28.458 30.8368 29.4285 30.4371 30.1442 29.7259C30.8596 29.0142 31.2616 28.0493 31.2616 27.0434V20.7212C31.2616 20.0226 30.6923 19.4565 29.9897 19.4565C29.2875 19.4565 28.7182 20.0226 28.7182 20.7212V27.0434C28.7182 27.3787 28.584 27.7005 28.3456 27.9375C28.1071 28.1746 27.7835 28.308 27.4462 28.308H4.55391C3.85173 28.308 3.28197 27.7415 3.28197 27.0434V20.7212C3.28197 20.0226 2.71264 19.4565 2.01047 19.4565C1.30786 19.4565 0.738525 20.0226 0.738525 20.7212V27.0434Z" fill="#002956"/>
<path id="Vector_2" d="M7.89836 14.665L14.9823 21.7082V21.7078C15.2191 21.9415 15.5389 22.0731 15.8723 22.0744C16.2104 22.0765 16.5353 21.9444 16.7755 21.7078L16.8645 21.6066L23.834 14.6772C24.0746 14.4401 24.21 14.1166 24.21 13.7796C24.21 13.4426 24.0746 13.1192 23.834 12.8817C23.3379 12.3914 22.537 12.3914 22.0409 12.8817L17.2716 17.6488V1.75436C17.2716 1.41905 17.1375 1.09729 16.899 0.860201C16.6606 0.623112 16.337 0.489746 15.9997 0.489746C15.2975 0.489746 14.7278 1.0558 14.7278 1.75436V17.8764L9.70431 12.8184C9.20823 12.3281 8.4073 12.3281 7.91119 12.8184C7.65271 13.0559 7.50453 13.3891 7.50198 13.7388C7.49985 14.0885 7.64335 14.4238 7.89842 14.6647L7.89836 14.665Z" fill="#002956"/>
</g>
</g>
<defs>
<clipPath id="clip0_1_134">
<rect width="32" height="31" fill="white"/>
</clipPath>
</defs>
</svg>
