<svg width="60" height="60" viewBox="0 0 60 60" fill="none" xmlns="http://www.w3.org/2000/svg">
<g id="link 1">
<g id="Group">
<path id="Vector" d="M24.0884 55.7578C18.7574 61.0887 10.0732 61.0887 4.74233 55.7578C-0.588523 50.4268 -0.588658 41.7425 4.74233 36.4117L15.4902 25.6638C20.8212 20.3328 29.5054 20.3328 34.8363 25.6638C35.2737 26.0895 35.5223 26.6721 35.5265 27.2823C35.5308 27.8925 35.2901 28.4788 34.8586 28.9103C34.4276 29.3419 33.8407 29.5826 33.2311 29.5783C32.6209 29.5741 32.0377 29.3254 31.612 28.8881C28.0114 25.2875 22.315 25.2875 18.7144 28.8881L7.9665 39.636C4.36586 43.2366 4.36586 48.933 7.9665 52.5336C11.5671 56.1342 17.2635 56.1337 20.8641 52.5336L31.0744 42.3227V42.3232C31.5001 41.8859 32.0833 41.6373 32.6935 41.633C33.3037 41.6288 33.89 41.8695 34.3215 42.301C34.7525 42.7325 34.9932 43.3188 34.989 43.929C34.9847 44.5392 34.7361 45.1218 34.2987 45.5476L24.0884 55.7578ZM44.5093 35.3368C39.1783 40.6678 30.4941 40.6678 25.1633 35.3368V35.3374C24.7259 34.9117 24.4773 34.329 24.473 33.7188C24.4693 33.1086 24.7095 32.5223 25.141 32.0908C25.5725 31.6593 26.1589 31.4186 26.769 31.4228C27.3792 31.4271 27.9618 31.6757 28.3876 32.1131C31.9882 35.7137 37.6845 35.7137 41.2852 32.1131L52.0331 21.3652C55.6337 17.7645 55.6337 12.0682 52.0331 8.46755C48.4324 4.86692 42.7361 4.86692 39.1355 8.46755L28.9251 18.6779C28.4994 19.1152 27.9163 19.3644 27.3061 19.3686C26.6958 19.3729 26.1095 19.1322 25.678 18.7007C25.2465 18.2691 25.0058 17.6828 25.0101 17.0721C25.0143 16.4619 25.2629 15.8788 25.7008 15.4536L35.9111 5.24324C41.2421 -0.0877531 49.9264 -0.0877531 55.2572 5.24324C60.5881 10.5742 60.5882 19.2585 55.2572 24.5893L44.5093 35.3372L44.5093 35.3368Z" fill="#002956"/>
</g>
</g>
</svg>
