<svg width="46" height="60" viewBox="0 0 46 60" fill="none" xmlns="http://www.w3.org/2000/svg">
<g id="lock 1" clip-path="url(#clip0_1_63)">
<g id="Group">
<path id="Vector" d="M23.4501 0.196899C15.4037 0.196899 8.88453 7.11485 8.88453 15.6535V24.0842H4.91187C2.73389 24.0842 0.939209 25.9887 0.939209 28.2999V54.9976C0.939209 57.3088 2.73389 59.2133 4.91187 59.2133H41.9878C44.1658 59.2133 45.9605 57.3088 45.9605 54.9976V28.2999C45.9605 25.9887 44.1658 24.0842 41.9878 24.0842H38.0152V15.6535C38.0152 7.11485 31.496 0.196899 23.4496 0.196899H23.4501ZM23.4501 3.00693C30.0749 3.00693 35.3674 8.62274 35.3674 15.6532V24.084H11.5328V15.6532C11.5328 8.62312 16.8249 3.00693 23.4501 3.00693ZM4.91211 26.8944H41.9881C42.7445 26.8944 43.3121 27.4967 43.3121 28.2994V54.9971C43.3121 55.7999 42.7445 56.4021 41.9881 56.4021H4.91211C4.15564 56.4021 3.58808 55.7998 3.58808 54.9971V28.2994C3.58808 27.4967 4.15567 26.8944 4.91211 26.8944ZM23.4501 32.5151C20.5406 32.5151 18.1534 35.0482 18.1534 38.1358C18.1534 39.5138 18.6956 40.7126 19.4774 41.6928V46.5671C19.4774 48.8783 21.2721 50.7828 23.4501 50.7828C25.6281 50.7828 27.4227 48.8783 27.4227 46.5671V41.6928C28.2046 40.7126 28.7468 39.5144 28.7468 38.1358C28.7468 35.0483 26.3596 32.5151 23.4501 32.5151ZM23.4501 35.3251C24.9284 35.3251 26.0981 36.5665 26.0981 38.1351C26.0981 38.9751 25.7527 39.7039 25.2087 40.2209C24.933 40.4865 24.7709 40.8796 24.7741 41.2746V46.5659C24.7741 47.3687 24.2065 47.9709 23.4501 47.9709C22.6936 47.9709 22.126 47.3686 22.126 46.5659V41.2746C22.1325 40.8796 21.9672 40.486 21.6915 40.2209C21.1474 39.7039 20.802 38.9751 20.802 38.1351C20.802 36.5664 21.9718 35.3251 23.45 35.3251H23.4501Z" fill="#002956"/>
</g>
</g>
<defs>
<clipPath id="clip0_1_63">
<rect width="46" height="60" fill="white"/>
</clipPath>
</defs>
</svg>
