<svg width="60" height="60" viewBox="0 0 60 60" fill="none" xmlns="http://www.w3.org/2000/svg">
<g id="password 1" clip-path="url(#clip0_1_75)">
<g id="Group">
<path id="Vector" d="M52.3191 14.9486C56.3462 14.9486 59.6822 11.6127 59.6822 7.58558C59.6822 3.5585 56.3462 0.222534 52.3191 0.222534C48.1774 0.222534 44.9561 3.5585 44.9561 7.58558C44.9561 11.6127 48.1774 14.9486 52.3191 14.9486ZM52.3191 2.98409C54.8502 2.98409 56.806 5.05453 56.806 7.47094C56.806 10.002 54.8503 11.9578 52.3191 11.9578C49.788 11.9578 47.8322 10.0021 47.8322 7.47094C47.8322 5.05453 49.788 2.98409 52.3191 2.98409Z" fill="#002956"/>
<path id="Vector_2" d="M7.68067 37.2678C11.7078 37.2678 15.0437 33.9319 15.0437 29.9048C15.0437 25.8777 11.7078 22.5417 7.68067 22.5417C3.53896 22.5417 0.317627 25.8777 0.317627 29.9048C0.317627 34.0465 3.65442 37.2678 7.68067 37.2678ZM7.68067 25.4179C10.2117 25.4179 12.1675 27.3736 12.1675 29.9048C12.1675 32.4359 10.2118 34.3917 7.68067 34.3917C5.14952 34.3917 3.19382 32.4359 3.19382 29.9048C3.19382 27.3736 5.26508 25.4179 7.68067 25.4179Z" fill="#002956"/>
<path id="Vector_3" d="M52.3191 22.5417C48.1774 22.5417 44.9561 25.8777 44.9561 29.9048C44.9561 34.0465 48.292 37.2678 52.3191 37.2678C56.3462 37.2678 59.6822 33.9319 59.6822 29.9048C59.6822 25.8777 56.3454 22.5417 52.3191 22.5417ZM52.3191 34.3917C49.7881 34.3917 47.8322 32.4359 47.8322 29.9048C47.8322 27.3736 49.788 25.4179 52.3191 25.4179C54.8503 25.4179 56.806 27.3736 56.806 29.9048C56.806 32.4359 54.7347 34.3917 52.3191 34.3917Z" fill="#002956"/>
<path id="Vector_4" d="M52.3191 44.976C48.7528 44.976 45.7609 47.5071 45.0709 50.9587H37.248C36.5579 47.6227 33.5661 44.976 29.9998 44.976C26.4336 44.976 23.4417 47.5071 22.7516 50.9587H14.9288C14.6985 50.0382 14.3534 49.1177 13.778 48.3128L25.8582 36.2326C27.009 37.0383 28.3892 37.4982 29.9999 37.4982C34.027 37.4982 37.363 34.1622 37.363 30.1351C37.363 26.5688 34.8319 23.577 31.3803 22.8869V14.9484C34.7162 14.2583 37.363 11.2665 37.363 7.70021C37.363 3.67313 34.027 0.337158 29.9999 0.337158C26.4336 0.337158 23.4418 2.86821 22.7517 6.31984H14.9289C14.2387 2.98387 11.2469 0.337158 7.68067 0.337158C3.53896 0.337158 0.317627 3.67313 0.317627 7.70021C0.317627 11.8419 3.6536 15.0633 7.68067 15.0633C11.2469 15.0633 14.2388 12.5322 14.9289 9.08057H22.7517C23.3271 12.0716 25.6279 14.3732 28.6189 14.9478V22.8863C25.1673 23.5765 22.6363 26.5682 22.6363 30.1345C22.6363 31.6304 23.0961 33.1255 23.9018 34.2762L11.8224 46.1269C10.6716 45.3212 9.29138 44.8614 7.79535 44.8614C3.65364 44.8614 0.432304 48.1973 0.432304 52.2244C0.432304 56.3661 3.76827 59.5875 7.79535 59.5875C11.3616 59.5875 14.3535 57.0564 15.0436 53.6048H22.8664C23.5565 57.0564 26.5483 59.5875 30.1146 59.5875C33.6809 59.5875 36.6727 57.0564 37.3628 53.6048H45.1856C45.8758 57.0564 48.8676 59.5875 52.4338 59.5875C56.4609 59.5875 59.7969 56.2515 59.7969 52.2244C59.6821 48.1973 56.3452 44.9762 52.3192 44.9762L52.3191 44.976ZM25.513 29.905C25.513 27.9493 26.7785 26.223 28.6195 25.6484C29.0793 25.4181 29.5399 25.4181 30.1153 25.4181C30.5752 25.4181 31.0358 25.5329 31.4957 25.6484C33.221 26.2238 34.6021 27.9492 34.6021 29.905C34.6021 32.436 32.6464 34.3918 30.1153 34.3918C29.4251 34.3918 28.735 34.1615 28.1596 33.932C27.2391 33.4721 26.549 32.7812 26.0891 31.8615C25.6277 31.2853 25.5129 30.5952 25.5129 29.905L25.513 29.905ZM25.513 7.47069C25.513 7.01084 25.6277 6.5502 25.7433 6.09036C26.3187 4.36498 28.044 2.98387 29.9999 2.98387C32.5309 2.98387 34.4867 5.05432 34.4867 7.47073C34.4867 9.54117 33.2211 11.1527 31.3802 11.7273C30.9204 11.9576 30.4597 11.9576 29.9999 11.9576C29.5401 11.9576 28.9646 11.8428 28.504 11.7273C27.1237 11.2674 26.0876 10.2314 25.6278 8.85109C25.5131 8.50601 25.5131 8.04617 25.5131 7.47077L25.513 7.47069ZM12.1672 7.47069C12.1672 7.93053 12.0525 8.50593 11.9369 8.96655C11.3615 10.8075 9.63618 12.073 7.68037 12.073C5.14932 12.073 3.19351 10.1173 3.19351 7.58619C3.19351 5.05514 5.14922 3.09933 7.68037 3.09933C9.63607 3.09933 11.3623 4.36489 11.9369 6.20582C12.1672 6.5501 12.1672 7.00994 12.1672 7.47056V7.47069ZM52.3189 56.8261C50.3632 56.8261 48.6369 55.5606 48.0623 53.7196C47.832 53.2598 47.832 52.7991 47.832 52.2238C47.832 51.6484 47.9468 51.3033 48.0623 50.8434C48.6377 49.1181 50.3631 47.7369 52.3189 47.7369C54.8499 47.7369 56.8057 49.6927 56.8057 52.2238C56.8057 54.7557 54.7345 56.8261 52.3189 56.8261ZM34.4863 52.3393C34.4863 52.7991 34.3715 53.3745 34.256 53.8351C33.6806 55.6761 31.9552 56.9416 29.9994 56.9416C28.0436 56.9416 26.3175 55.6761 25.7428 53.8351C25.5125 53.3753 25.5125 52.9146 25.5125 52.3393C25.5125 51.7639 25.6273 51.4188 25.7428 50.9589C26.3182 49.2336 28.0436 47.8524 29.9994 47.8524C31.9552 47.8524 33.6813 49.118 34.256 50.9589C34.4863 51.304 34.4863 51.7639 34.4863 52.3393ZM12.167 52.3393C12.167 52.7991 12.0523 53.3745 11.9367 53.8351C11.3613 55.6761 9.63597 56.9416 7.68016 56.9416C5.14911 56.9416 3.1933 54.9859 3.1933 52.4548C3.1933 49.9237 5.14901 47.9679 7.68016 47.9679C8.37032 47.9679 9.06048 48.1982 9.63587 48.4277C10.4416 48.8876 11.2465 49.5786 11.7063 50.3835C11.8211 50.6138 11.9366 50.7285 11.9366 50.9589C12.167 51.3039 12.167 51.7638 12.167 52.3392L12.167 52.3393Z" fill="#002956"/>
</g>
</g>
<defs>
<clipPath id="clip0_1_75">
<rect width="60" height="60" fill="white"/>
</clipPath>
</defs>
</svg>
