<svg width="60" height="56" viewBox="0 0 60 56" fill="none" xmlns="http://www.w3.org/2000/svg">
<g id="Group">
<path id="Vector" d="M25.7168 47.3873C25.7168 52.1243 21.8619 56 17.1503 56H8.58385C3.87229 56 0.0173775 52.1243 0.0173775 47.3873V34.4683C0.0173775 29.7314 3.87229 25.8557 8.58385 25.8557H12.8671C15.2013 25.8557 17.0776 23.9736 17.1331 21.6397V21.3897C17.1331 14.3617 11.3765 8.64301 4.30049 8.64301C1.92317 8.64301 0 6.70947 0 4.31933C0 1.92969 1.92317 0.000453949 4.30049 0.000453949C16.1181 0.000453949 25.7338 9.59939 25.7338 21.3943L25.7168 47.3873Z" fill="#DDE0FF"/>
<path id="Vector_2" d="M59.9832 47.3873C59.9832 52.1243 56.1282 56 51.4167 56H42.8502C38.1386 56 34.2837 52.1243 34.2837 47.3873V34.4683C34.2837 29.7314 38.1386 25.8557 42.8502 25.8557H47.1334C49.472 25.8557 51.3527 23.9698 51.3994 21.6354V21.3941C51.3994 14.366 45.6386 8.64736 38.5668 8.64736C36.1895 8.64736 34.2664 6.71382 34.2664 4.32368C34.2664 1.93355 36.1938 0 38.5668 0C50.3888 0 60.0002 9.59894 60.0002 21.3939L59.9832 47.3873Z" fill="#DDE0FF"/>
</g>
</svg>
