<svg width="75" height="60" viewBox="0 0 75 60" fill="none" xmlns="http://www.w3.org/2000/svg">
<g id="send 1" clip-path="url(#clip0_1_69)">
<g id="Group">
<path id="Vector" d="M73.5545 1.16388C73.0554 0.763101 72.3084 0.633526 71.6467 0.832915L2.08633 21.9713C1.36249 22.1898 0.893525 22.7538 0.922405 23.3721C0.950655 23.9909 1.46983 24.5253 2.21251 24.7005L34.6125 32.3471L44.1707 58.2671L44.17 58.2666C44.3891 58.8582 45.0552 59.2725 45.8262 59.2961H45.8984H45.8978C46.6455 59.2961 47.3159 58.9265 47.5809 58.3675L73.9606 2.68964C74.2117 2.16129 74.0535 1.56414 73.5557 1.16285L73.5545 1.16388ZM8.35917 23.1457L65.0592 5.90945L35.5022 29.5615L8.35917 23.1457ZM46.0692 53.3215L38.0499 31.5993L67.6149 7.94731L46.0692 53.3215Z" fill="#002956"/>
</g>
</g>
<defs>
<clipPath id="clip0_1_69">
<rect width="75" height="60" fill="white"/>
</clipPath>
</defs>
</svg>
