<svg width="37" height="30" viewBox="0 0 37 30" fill="none" xmlns="http://www.w3.org/2000/svg">
<g id="noun-upload-1049548 1" clip-path="url(#clip0_1_166)">
<g id="Group">
<path id="Vector" d="M3.46169 0.0456543C1.73731 0.0456543 0.302363 1.4565 0.302363 3.16882V7.67172C0.29785 7.99398 0.42366 8.30475 0.65158 8.53432C0.879499 8.7639 1.19093 8.89298 1.51561 8.89298C1.84029 8.89298 2.15143 8.76391 2.37964 8.53432C2.60756 8.30474 2.73337 7.99396 2.72886 7.67172V3.16882C2.72886 2.75304 3.03548 2.45374 3.46168 2.45374H33.5385C33.9647 2.45374 34.2713 2.75304 34.2713 3.16882V7.67172C34.2668 7.99398 34.3926 8.30475 34.6205 8.53432C34.8488 8.76391 35.1599 8.89298 35.4846 8.89298C35.8093 8.89298 36.1207 8.76391 36.3486 8.53432C36.5765 8.30474 36.7023 7.99396 36.6978 7.67172V3.16882C36.6978 1.45643 35.2629 0.0456543 33.5385 0.0456543H3.46169ZM18.4871 8.07324C18.1695 8.07576 17.8654 8.20175 17.6406 8.42433L10.3615 15.6492C10.0543 15.9538 9.93438 16.3981 10.0469 16.8142C10.1592 17.2305 10.4867 17.5556 10.9061 17.6672C11.3256 17.7787 11.773 17.6597 12.0802 17.3551L17.2866 12.1872V28.5434C17.2821 28.8659 17.4079 29.1764 17.6358 29.406C17.8637 29.6355 18.1752 29.7646 18.4998 29.7646C18.8245 29.7646 19.1359 29.6356 19.3639 29.406C19.5918 29.1764 19.7176 28.8659 19.7131 28.5434V12.1872L24.9195 17.3551C25.2267 17.6597 25.6741 17.7787 26.0936 17.6672C26.513 17.5555 26.8405 17.2305 26.9528 16.8142C27.0653 16.3981 26.9454 15.9538 26.6382 15.6492L19.3591 8.42433C19.1281 8.19559 18.8136 8.06904 18.4872 8.07324H18.4871Z" fill="#002956"/>
</g>
</g>
<defs>
<clipPath id="clip0_1_166">
<rect width="37" height="30" fill="white"/>
</clipPath>
</defs>
</svg>
